<svg xmlns="http://www.w3.org/2000/svg" version="1.1" xmlns:xlink="http://www.w3.org/1999/xlink" xmlns:svgjs="http://svgjs.dev/svgjs" width="1500" height="1500" viewBox="0 0 1500 1500"><rect width="1500" height="1500" fill="#ffffff"></rect><g transform="matrix(0.6666666666666666,0,0,0.6666666666666666,249.39393939393938,435.99032258064517)"><svg viewBox="0 0 396 248" data-background-color="#fdfbe2" preserveAspectRatio="xMidYMid meet" height="939" width="1500" xmlns="http://www.w3.org/2000/svg" xmlns:xlink="http://www.w3.org/1999/xlink"><g id="tight-bounds" transform="matrix(1,0,0,1,0.2400000000000091,0.4000000000000057)"><svg viewBox="0 0 395.52 247.2" height="247.2" width="395.52"><g><svg></svg></g><g><svg viewBox="0 0 395.52 247.2" height="247.2" width="395.52"><g transform="matrix(1,0,0,1,75.54432,56.93690181818181)"><svg viewBox="0 0 244.43135999999998 133.32619636363637" height="133.32619636363637" width="244.43135999999998"><g><svg viewBox="0 0 244.43135999999998 133.32619636363637" height="133.32619636363637" width="244.43135999999998"><g><svg viewBox="0 0 244.43135999999998 133.32619636363637" height="133.32619636363637" width="244.43135999999998"><g><svg viewBox="0 0 244.43135999999998 133.32619636363637" height="133.32619636363637" width="244.43135999999998"><g id="textblocktransform"><svg viewBox="0 0 244.43135999999998 133.32619636363637" height="133.32619636363637" width="244.43135999999998" id="textblock"><g><svg viewBox="0 0 244.43135999999998 133.32619636363637" height="133.32619636363637" width="244.43135999999998"><g transform="matrix(1,0,0,1,0,0)"><svg width="244.43135999999998" viewBox="4.69 -33.84 62.03 33.84" height="133.32619636363637" data-palette-color="#454545"><path d="M8.28 0L4.69 0 4.69-33.84 9.57-33.84 16.16-15.5Q16.8-13.72 17.4-11.95 17.99-10.18 18.6-8.4L18.6-8.4 18.8-8.4Q19.43-10.18 20-11.95 20.56-13.72 21.17-15.5L21.17-15.5 27.66-33.84 32.62-33.84 32.62 0 28.86 0 28.86-19.17Q28.86-21.36 29.03-24.24 29.2-27.12 29.37-29.37L29.37-29.37 29.15-29.37 26.49-21.39 20-3.44 17.21-3.44 10.72-21.39 8.03-29.37 7.81-29.37Q7.98-27.12 8.13-24.24 8.28-21.36 8.28-19.17L8.28-19.17 8.28 0ZM45.99 0L41.99 0 41.99-33.84 45.99-33.84 45.99-16.58 46.16-16.58 60.54-33.84 65.06-33.84 54.44-20.97 66.72 0 62.23 0 51.98-17.87 45.99-10.82 45.99 0Z" opacity="1" transform="matrix(1,0,0,1,0,0)" fill="#000000" class="wordmark-text-0" data-fill-palette-color="primary" id="text-0"></path></svg></g></svg></g></svg></g></svg></g></svg></g></svg></g></svg></g><path d="M148.112 50.937L148.112 5.44 384.433 5.44 384.433 241.76 148.112 241.76 148.112 196.263 160.136 196.263 160.136 229.737 372.409 229.737 372.409 17.463 160.136 17.463 160.136 50.937Z" fill="#000000" stroke="transparent" data-fill-palette-color="tertiary"></path></svg></g><defs></defs></svg><rect width="395.52" height="247.2" fill="none" stroke="none" visibility="hidden"></rect></g></svg></g></svg>